<?xml version="1.0" standalone="no"?><!DOCTYPE svg PUBLIC "-//W3C//DTD SVG 1.1//EN" "http://www.w3.org/Graphics/SVG/1.1/DTD/svg11.dtd"><svg t="1576671110535" class="icon" viewBox="0 0 1024 1024" version="1.1" xmlns="http://www.w3.org/2000/svg" p-id="3823" xmlns:xlink="http://www.w3.org/1999/xlink" width="128" height="128"><defs><style type="text/css"></style></defs><path d="M512.022187 546.417778c-184.177778 0-368.071111-55.921778-499.114667-167.537778a37.575111 37.575111 0 0 1-3.498667-53.162667 37.944889 37.944889 0 0 1 53.418667-3.470222c231.082667 198.826667 668.302222 198.826667 898.389333 0a37.944889 37.944889 0 0 1 53.418667 3.470222c13.767111 15.644444 12.231111 39.452444-3.498667 53.191111C880.093298 490.496 696.199964 546.417778 512.022187 546.417778z m-136.760889 164.522666a30.833778 30.833778 0 0 1-6.741334 0c-10.325333-1.422222-19.626667-7.111111-25.543111-15.644444-5.944889-8.561778-7.964444-19.228444-5.632-29.354667l24.945778-146.631111a37.973333 37.973333 0 0 1 43.918222-30.805333 37.831111 37.831111 0 0 1 30.947556 43.747555l-24.945778 146.602667a37.376 37.376 0 0 1-36.949333 32.085333z m561.009778-74.581333c-9.955556 0-19.512889-4.039111-26.453334-11.178667l-123.022222-124.245333a37.176889 37.176889 0 0 1 16.042667-64.455111 37.546667 37.546667 0 0 1 37.091555 12.259556l123.050667 124.245333c14.592 14.563556 14.592 38.144 0 52.707555-7.224889 6.826667-16.782222 10.638222-26.737778 10.666667z m-848.497778 0a38.997333 38.997333 0 0 1-24.945778-10.666667 37.176889 37.176889 0 0 1 0-52.707555l123.022222-124.245333a37.518222 37.518222 0 0 1 67.470222 14.136888 37.205333 37.205333 0 0 1-15.815111 38.058667l-123.022222 124.245333a37.006222 37.006222 0 0 1-26.709333 11.178667z m562.744889 74.581333a37.376 37.376 0 0 1-36.693334-30.833777l-24.945777-146.631111a37.176889 37.176889 0 0 1 9.756444-38.826667 37.546667 37.546667 0 0 1 39.424-7.68c13.539556 5.319111 22.755556 17.92 23.694222 32.341333l24.945778 146.631111c1.820444 9.728-0.341333 19.768889-6.030222 27.904-5.688889 8.135111-14.364444 13.653333-24.177778 15.36a30.805333 30.805333 0 0 1-5.973333 1.706667z" fill="#2c2c2c" p-id="3824"></path></svg>