<?xml version="1.0" standalone="no"?><!DOCTYPE svg PUBLIC "-//W3C//DTD SVG 1.1//EN" "http://www.w3.org/Graphics/SVG/1.1/DTD/svg11.dtd"><svg t="1577601943363" class="icon" viewBox="0 0 1024 1024" version="1.1" xmlns="http://www.w3.org/2000/svg" p-id="6185" xmlns:xlink="http://www.w3.org/1999/xlink" width="128" height="128"><defs><style type="text/css"></style></defs><path d="M145.28 515.2L188.16 614.4l42.88 124.8 30.08 56.96 52.48 11.52 100.48-49.92 24.96-14.72-1.92 170.88 236.16 6.4 12.16-75.52 8.96-65.28 42.88-143.36 49.92-100.48 36.48-75.52 12.16-71.68-4.48-62.72-23.68-68.48-46.08-63.36-62.72-46.72-121.6-33.28H471.68l-110.08 21.12-94.72 67.2-47.36 72.32-19.84 67.2-12.16 67.2-10.88 48-34.56 40.32z" fill="#EEF6FF" p-id="6186"></path><path d="M682.88 933.12H432.64c-7.04 0-12.8-5.76-12.8-12.8v-163.84c0-7.04 5.76-12.8 12.8-12.8s12.8 5.76 12.8 12.8v151.04h224.64v-4.48c0-131.84 40.32-266.88 115.84-390.4 17.28-28.16 28.8-59.52 33.92-92.16 12.16-75.52-7.68-147.84-55.04-203.52-48.64-57.6-122.88-90.24-203.52-90.24h-89.6c-42.24 0-80.64 8.32-115.2 24.96-90.88 44.16-147.2 133.12-147.2 233.6 0 48-21.76 92.8-58.88 122.88l-1.92 1.28c34.56 57.6 62.72 119.68 83.2 184.96l9.6 33.28c0.64 2.56 1.92 5.76 2.56 8.32l4.48 16.64c4.48 17.28 15.36 31.36 29.44 38.4 16 7.68 34.56 7.04 49.92-1.28 6.4-3.2 14.08-1.28 17.28 5.12s1.28 14.08-5.12 17.28c-22.4 12.16-49.92 12.8-73.6 1.28-21.12-10.24-36.48-30.08-42.88-55.04l-4.48-16.64-1.92-7.68-9.6-32.64C185.6 634.88 156.8 571.52 120.32 512.64c-3.2-5.76-1.92-12.8 3.2-16.64l10.88-8.32c31.36-24.96 49.28-62.72 49.28-103.04 0-110.08 62.08-208 161.92-256.64 37.76-17.92 80-27.52 126.08-27.52h90.24c88.32 0 169.6 35.84 223.36 99.2 52.48 61.44 73.6 140.8 60.8 224-5.76 36.48-18.56 70.4-37.12 101.76-73.6 119.68-112 249.6-112 376.96v17.28c-1.28 7.68-7.04 13.44-14.08 13.44z" fill="#708DB7" p-id="6187"></path><path d="M332.8 813.44c-4.48 0-8.96-2.56-11.52-6.4-3.2-6.4-1.28-14.08 5.12-17.28l151.04-81.92c6.4-3.2 14.08-1.28 17.28 5.12s1.28 14.08-5.12 17.28L339.2 812.16c-1.92 1.28-4.48 1.28-6.4 1.28zM300.8 428.8h-44.8c-7.04 0-12.8-5.76-12.8-12.8s5.76-12.8 12.8-12.8h44.8c7.04 0 12.8 5.76 12.8 12.8s-5.76 12.8-12.8 12.8zM262.4 691.2h-44.8c-7.04 0-12.8-5.76-12.8-12.8s5.76-12.8 12.8-12.8h44.8c7.04 0 12.8 5.76 12.8 12.8s-5.76 12.8-12.8 12.8z" fill="#708DB7" p-id="6188"></path><path d="M453.12 314.88m-31.36 0a31.36 31.36 0 1 0 62.72 0 31.36 31.36 0 1 0-62.72 0Z" fill="#FFF27D" p-id="6189"></path><path d="M453.12 359.04c-24.32 0-44.16-19.84-44.16-44.16s19.84-44.16 44.16-44.16c24.32 0 44.16 19.84 44.16 44.16s-19.84 44.16-44.16 44.16z m0-63.36c-10.24 0-18.56 8.32-18.56 18.56s8.32 18.56 18.56 18.56c10.24 0 18.56-8.32 18.56-18.56s-8.32-18.56-18.56-18.56z" fill="#708DB7" p-id="6190"></path><path d="M632.32 442.88m-31.36 0a31.36 31.36 0 1 0 62.72 0 31.36 31.36 0 1 0-62.72 0Z" fill="#FFF27D" p-id="6191"></path><path d="M632.32 487.04c-24.32 0-44.16-19.84-44.16-44.16s19.84-44.16 44.16-44.16c24.32 0 44.16 19.84 44.16 44.16s-19.84 44.16-44.16 44.16z m0-63.36c-10.24 0-18.56 8.32-18.56 18.56s8.32 18.56 18.56 18.56c10.24 0 18.56-8.32 18.56-18.56s-8.32-18.56-18.56-18.56z" fill="#708DB7" p-id="6192"></path><path d="M632.32 314.88m-31.36 0a31.36 31.36 0 1 0 62.72 0 31.36 31.36 0 1 0-62.72 0Z" fill="#FFF27D" p-id="6193"></path><path d="M632.32 359.04c-24.32 0-44.16-19.84-44.16-44.16s19.84-44.16 44.16-44.16c24.32 0 44.16 19.84 44.16 44.16s-19.84 44.16-44.16 44.16z m0-63.36c-10.24 0-18.56 8.32-18.56 18.56s8.32 18.56 18.56 18.56c10.24 0 18.56-8.32 18.56-18.56s-8.32-18.56-18.56-18.56z" fill="#708DB7" p-id="6194"></path><path d="M632.32 417.28c-7.04 0-12.8-5.76-12.8-12.8V352c0-7.04 5.76-12.8 12.8-12.8s12.8 5.76 12.8 12.8v53.12c0 6.4-5.76 12.16-12.8 12.16zM632.32 288.64c-7.04 0-12.8-5.76-12.8-12.8v-53.12c0-7.04 5.76-12.8 12.8-12.8s12.8 5.76 12.8 12.8v53.12c0 7.04-5.76 12.8-12.8 12.8zM472.32 314.88c0-7.04 5.76-12.8 12.8-12.8h103.04c7.04 0 12.8 5.76 12.8 12.8s-5.76 12.8-12.8 12.8H485.12c-7.04 0-12.8-5.76-12.8-12.8zM453.12 417.28c-7.04 0-12.8-5.76-12.8-12.8V352c0-7.04 5.76-12.8 12.8-12.8s12.8 5.76 12.8 12.8v53.12c0 6.4-5.76 12.16-12.8 12.16z" fill="#708DB7" p-id="6195"></path><path d="M440.32 405.12c0-7.04 5.76-12.8 12.8-12.8h49.92c7.04 0 12.8 5.76 12.8 12.8s-5.76 12.8-12.8 12.8h-49.92c-7.04 0-12.8-5.76-12.8-12.8zM651.52 314.88c0-7.04 5.76-12.8 12.8-12.8h80.64c7.04 0 12.8 5.76 12.8 12.8s-5.76 12.8-12.8 12.8h-80.64c-7.04 0-12.8-5.76-12.8-12.8z" fill="#708DB7" p-id="6196"></path><path d="M508.16 470.4c-7.04 0-12.8-5.76-12.8-12.8v-53.12c0-7.04 5.76-12.8 12.8-12.8s12.8 5.76 12.8 12.8v53.12c0 7.04-5.76 12.8-12.8 12.8zM562.56 222.72c0-7.04 5.76-12.8 12.8-12.8h53.12c7.04 0 12.8 5.76 12.8 12.8s-5.76 12.8-12.8 12.8h-53.12c-7.04 0-12.8-5.76-12.8-12.8z" fill="#708DB7" p-id="6197"></path><path d="M575.36 236.16c-7.04 0-12.8-5.76-12.8-12.8v-44.8c0-7.04 5.76-12.8 12.8-12.8s12.8 5.76 12.8 12.8v44.8c0 7.04-5.76 12.8-12.8 12.8zM651.52 442.88c0-7.04 5.76-12.8 12.8-12.8h57.6c7.04 0 12.8 5.76 12.8 12.8s-5.76 12.8-12.8 12.8h-57.6c-7.04 0-12.8-5.76-12.8-12.8zM449.92 295.68c-7.04 0-12.8-5.76-12.8-12.8V230.4c0-7.04 5.76-12.8 12.8-12.8s12.8 5.76 12.8 12.8v53.12c0 6.4-5.76 12.16-12.8 12.16z" fill="#708DB7" p-id="6198"></path><path d="M380.16 230.4c0-7.04 5.76-12.8 12.8-12.8h53.12c7.04 0 12.8 5.76 12.8 12.8s-5.76 12.8-12.8 12.8h-53.12c-7.04 0-12.8-5.76-12.8-12.8z" fill="#708DB7" p-id="6199"></path><path d="M363.52 231.68m-31.36 0a31.36 31.36 0 1 0 62.72 0 31.36 31.36 0 1 0-62.72 0Z" fill="#FFF27D" p-id="6200"></path><path d="M363.52 275.84c-24.32 0-44.16-19.84-44.16-44.16s19.84-44.16 44.16-44.16c24.32 0 44.16 19.84 44.16 44.16s-19.84 44.16-44.16 44.16z m0-63.36c-10.24 0-18.56 8.32-18.56 18.56s8.32 18.56 18.56 18.56c10.24 0 18.56-8.32 18.56-18.56s-8.32-18.56-18.56-18.56z" fill="#708DB7" p-id="6201"></path><path d="M610.56 924.8c-7.04 0-12.8-5.76-12.8-12.8v-213.76c0-7.04 5.76-12.8 12.8-12.8s12.8 5.76 12.8 12.8v213.76c0 7.04-5.76 12.8-12.8 12.8z" fill="#708DB7" p-id="6202"></path></svg>