<?xml version="1.0" standalone="no"?><!DOCTYPE svg PUBLIC "-//W3C//DTD SVG 1.1//EN" "http://www.w3.org/Graphics/SVG/1.1/DTD/svg11.dtd"><svg t="1577602655458" class="icon" viewBox="0 0 1024 1024" version="1.1" xmlns="http://www.w3.org/2000/svg" p-id="6987" xmlns:xlink="http://www.w3.org/1999/xlink" width="128" height="128"><defs><style type="text/css"></style></defs><path d="M613.2736 446.0544h-322.56a30.72 30.72 0 0 1 0-61.44h322.56a30.72 30.72 0 0 1 0 61.44zM445.44 577.4336H290.7136a30.72 30.72 0 0 1 0-61.44H445.44a30.72 30.72 0 1 1 0 61.44z" fill="#666666" p-id="6988"></path><path d="M512 924.6208a30.72 30.72 0 0 1-23.2448-10.5984l-118.784-137.3184H186.88a92.16 92.16 0 0 1-92.16-92.16V250.88a92.16 92.16 0 0 1 92.16-92.16h650.24a92.16 92.16 0 0 1 92.16 92.16v433.664a92.16 92.16 0 0 1-92.16 92.16h-183.0912l-118.784 137.3184a30.72 30.72 0 0 1-23.2448 10.5984zM186.88 220.16a30.72 30.72 0 0 0-30.72 30.72v433.664a30.72 30.72 0 0 0 30.72 30.72H384a30.72 30.72 0 0 1 23.2448 10.5984L512 846.9504l104.7552-121.088a30.72 30.72 0 0 1 23.2448-10.5984h197.12a30.72 30.72 0 0 0 30.72-30.72V250.88a30.72 30.72 0 0 0-30.72-30.72z" fill="#666666" p-id="6989"></path></svg>