<?xml version="1.0" standalone="no"?><!DOCTYPE svg PUBLIC "-//W3C//DTD SVG 1.1//EN" "http://www.w3.org/Graphics/SVG/1.1/DTD/svg11.dtd"><svg t="1577602725582" class="icon" viewBox="0 0 1024 1024" version="1.1" xmlns="http://www.w3.org/2000/svg" p-id="7765" xmlns:xlink="http://www.w3.org/1999/xlink" width="128" height="128"><defs><style type="text/css"></style></defs><path d="M621.056 451.584h-324.266667c-14.677333 0-23.722667-9.693867-23.722666-25.6 0-15.837867 9.045333-25.6 23.7568-25.6h324.232533c14.677333 0 23.722667 9.762133 23.722667 25.6 0 15.906133-9.045333 25.6-23.722667 25.6zM482.0992 566.613333H296.823467c-14.677333 0-23.7568-9.728-23.7568-25.6s9.045333-25.6 23.7568-25.6h185.275733c14.677333 0 23.722667 9.728 23.722667 25.6s-9.045333 25.6-23.722667 25.6zM477.866667 800.836267A26.282667 26.282667 0 1 1 477.866667 853.333333H267.229867A96.426667 96.426667 0 0 1 170.666667 757.077333V266.922667A96.426667 96.426667 0 0 1 267.229867 170.666667H688.469333A96.426667 96.426667 0 0 1 785.066667 266.922667v175.069866a26.282667 26.282667 0 0 1-52.667734 0V266.922667c0-24.200533-19.626667-43.793067-43.895466-43.793067H267.264c-24.234667 0-43.895467 19.592533-43.895467 43.793067v490.0864c0 24.200533 19.626667 43.793067 43.895467 43.793066H477.866667z m290.679466-71.304534l76.014934 76.049067a27.818667 27.818667 0 0 1 0.341333 39.3216 27.818667 27.818667 0 0 1-39.3216-0.341333l-76.049067-76.014934c-46.1824 28.296533-107.997867 21.947733-148.616533-18.705066-47.479467-47.445333-48.162133-123.767467-1.501867-170.427734 46.660267-46.660267 122.948267-45.9776 170.427734 1.501867 40.6528 40.618667 47.0016 102.4 18.705066 148.616533z m-56.866133-17.851733c25.122133-25.122133 24.746667-66.218667-0.8192-91.818667-25.565867-25.531733-66.6624-25.9072-91.784533-0.785066s-24.746667 66.218667 0.8192 91.784533c25.565867 25.565867 66.6624 25.941333 91.784533 0.8192z" fill="#979797" p-id="7766"></path></svg>